<svg
   width="44"
   height="19"
   xmlns="http://www.w3.org/2000/svg">
  <view
     width="22"
     height="19"
     viewBox="0 0 22 19"
     fill="none"
     id="blank" />
  <g>
    <path
       d="m 20.2991,9.78586 c 2.2679,-2.24248 2.2679,-5.88373 0,-8.104 -2.268,-2.242479 -5.9505,-2.242479 -8.2185,0 L 10.9804,2.792 9.88007,1.70406 C 7.61215,-0.560619 3.92957,-0.560619 1.6841,1.68186 0.583822,2.76979 0,4.21297 0,5.74496 0,7.27695 0.606277,8.72013 1.6841,9.80806 L 10.9804,19 Z M 1.4371,5.74496 c 0,-1.15454 0.4491,-2.22027 1.27992,-3.01957 0.85328,-0.84371 1.95356,-1.26556 3.05384,-1.26556 1.10028,0 2.20056,0.42185 3.05384,1.26556 l 2.1557,2.10926 2.1556,-2.13147 c 1.6841,-1.6652 4.446,-1.6652 6.1077,0 0.8084,0.7993 1.2799,1.86503 1.2799,3.01958 0,1.15454 -0.4491,2.22027 -1.2799,3.01957 L 10.9804,16.9351 2.71702,8.76453 C 1.90865,7.94303 1.4371,6.8773 1.4371,5.74496 Z"
       fill="black"/>
  </g>
  <view
     width="22"
     height="19"
     viewBox="0 0 22 19"
     id="active" />
  <g transform="translate(22, 0)">
<path fill-rule="evenodd" clip-rule="evenodd" d="M20.2991 1.68186C22.567 3.90213 22.567 7.54338 20.2991 9.78586L10.9804 19L1.6841 9.80806C0.606277 8.72013 0 7.27695 0 5.74496C0 4.21297 0.583823 2.76979 1.6841 1.68186C3.92957 -0.560619 7.61215 -0.560619 9.88007 1.70406L10.9804 2.792L12.0806 1.68186C14.3486 -0.560619 18.0311 -0.560619 20.2991 1.68186Z" fill="black"/>
  </g>
</svg>
